<?xml version="1.0" standalone="no"?>
<!DOCTYPE svg PUBLIC "-//W3C//DTD SVG 20010904//EN"
 "http://www.w3.org/TR/2001/REC-SVG-20010904/DTD/svg10.dtd">
<svg version="1.0" xmlns="http://www.w3.org/2000/svg"
 width="90.000000pt" height="90.000000pt" viewBox="0 0 90.000000 90.000000"
 preserveAspectRatio="xMidYMid meet">
<metadata>
Created by potrace 1.15, written by Peter Selinger 2001-2017
</metadata>
<g transform="translate(0.000000,90.000000) scale(0.100000,-0.100000)"
fill="#000000" stroke="none">
<path d="M630 661 l45 -6 -52 -44 -51 -45 27 -40 c15 -23 30 -46 34 -52 4 -6
-26 -40 -67 -77 l-73 -66 -33 45 -32 45 28 32 c16 17 -9 -4 -56 -47 -47 -43
-85 -82 -85 -87 0 -5 51 -74 114 -154 l114 -145 94 0 94 0 -80 104 -81 104
120 112 c66 61 120 119 120 128 0 9 -28 58 -61 109 l-62 93 -51 -2 -51 -1 45
-6z"/>
</g>
</svg>
